#!OML:ASF H:\BabyWalks\Project 1\Capture day 1\Session 1\baby.ASF
:FULLY-SPECIFIED
:DEGREES
539
root -33.7277 17.6386 -1.04517 -163.558 86.7578 -156.692
lowerback 14.1309 -2.06497 0.149631
upperback 3.7314 -2.01268 6.98019
thorax -3.71372 -0.850332 7.68618
lowerneck -4.8874 0.5274 -4.4784
upperneck -5.52367 0.898022 -9.97813
head -0.876501 0.738683 -2.38944
rclavicle 2.78299e-015 9.54166e-015
rhumerus -24.5327 41.9178 -63.414
rradius 76.1196
rwrist 3.78087
rhand -23.2408 -4.51651
rfingers 7.12502
rthumb 3.21052 -34.4721
lclavicle 2.78299e-015 9.54166e-015
lhumerus 3.34773 -8.03961 34.3154
lradius 97.9293
lwrist 7.35852
lhand -9.84931 -1.21264
lfingers 7.12502
lthumb 16.1288 28.1362
rfemur 6.4999 4.82801 16.418
rtibia 16.2145
rfoot -14.0741 -20.6184
rtoes -8.30714
lfemur 1.49741 -8.54947 -13.2828
ltibia 20.1249
lfoot -16.8191 11.7374
ltoes -6.41388
540
root -33.7268 17.6387 -1.07013 -169.44 87.3313 -162.632
lowerback 14.2176 -2.191 0.118641
upperback 3.70779 -2.14506 7.3241
thorax -3.75198 -0.908008 8.11251
lowerneck -4.73867 0.809662 -4.22741
upperneck -5.68302 1.23945 -11.2503
head -0.935322 0.942286 -2.8634
rclavicle 1.94809e-014 1.59028e-014
rhumerus -26.0303 41.8278 -63.8841
rradius 75.4954
rwrist 3.80915
rhand -22.9677 -4.61036
rfingers 7.12502
rthumb 3.4743 -34.5618
lclavicle 1.94809e-014 1.59028e-014
lhumerus 5.12991 -6.52659 31.9036
lradius 97.7635
lwrist 7.67078
lhand -10.4095 -1.38142
lfingers 7.12502
lthumb 15.5893 28.0103
rfemur 6.01883 5.04626 15.7901
rtibia 16.9177
rfoot -14.3382 -20.3352
rtoes -8.60313
lfemur 1.84734 -8.64547 -13.9609
ltibia 19.6222
lfoot -16.4586 12.2611
ltoes -6.91249
541
root -33.7259 17.6388 -1.09621 -178.151 87.8612 -171.418
lowerback 14.3152 -2.31981 0.0960527
upperback 3.68099 -2.27811 7.66651
thorax -3.79792 -0.965413 8.53599
lowerneck -4.60973 1.09068 -3.99616
upperneck -5.85217 1.58306 -12.4744
head -0.989318 1.14956 -3.32884
rclavicle 2.3059e-014 6.04305e-014
rhumerus -27.4124 41.7175 -64.2169
rradius 74.9062
rwrist 3.84326
rhand -22.7207 -4.67275
rfingers 7.12502
rthumb 3.71277 -34.6202
lclavicle 2.3059e-014 6.04305e-014
lhumerus 6.80199 -4.99599 29.4772
lradius 97.4346
lwrist 8.02297
lhand -11.0195 -1.55539
lfingers 7.12502
lthumb 15.0018 27.8812
rfemur 5.52793 5.24986 15.1607
rtibia 17.5869
rfoot -14.5822 -20.0389
rtoes -8.90503
lfemur 2.16023 -8.71477 -14.6255
ltibia 19.1374
lfoot -16.078 12.7576
ltoes -7.45971
542
root -33.725 17.6387 -1.12348 -191.845 88.319 -185.211
lowerback 14.4189 -2.44524 0.0786264
upperback 3.64832 -2.40437 8.00793
thorax -3.85281 -1.0188 8.95781
lowerneck -4.50714 1.36661 -3.79812
upperneck -6.01959 1.92596 -13.6391
head -1.03403 1.35785 -3.77793
rclavicle -9.93923e-015 1.27222e-014
rhumerus -28.6844 41.5856 -64.4142
rradius 74.3478
rwrist 3.87748
rhand -22.511 -4.69522
rfingers 7.12502
rthumb 3.91534 -34.639
lclavicle -9.93923e-015 1.27222e-014
lhumerus 8.3673 -3.46514 27.0425
lradius 96.9518
lwrist 8.44965
lhand -11.6651 -1.72006
lfingers 7.12502
lthumb 14.3797 27.7619
rfemur 5.01315 5.43432 14.524
rtibia 18.2279
rfoot -14.7918 -19.7246
rtoes -9.26091
lfemur 2.42819 -8.74771 -15.277
ltibia 18.6708
lfoot -15.6824 13.2209
ltoes -8.0569
543
root -33.7238 17.6387 -1.15144 -213.293 88.6123 -206.78
lowerback 14.5233 -2.56868 0.0514789
upperback 3.61244 -2.52834 8.34797
thorax -3.90959 -1.07058 9.38674
lowerneck -4.44317 1.63557 -3.6334
upperneck -6.17359 2.26809 -14.7432
head -1.06366 1.56538 -4.20822
rclavicle 6.75868e-015 -6.36111e-015
rhumerus -29.8476 41.4342 -64.4786
rradius 73.8182
rwrist 3.91743
rhand -22.3574 -4.68865
rfingers 7.12502
rthumb 4.06368 -34.6296
lclavicle 6.75868e-015 -6.36111e-015
lhumerus 9.83348 -1.94367 24.6076
lradius 96.3134
lwrist 8.96059
lhand -12.3542 -1.86497
lfingers 7.12502
lthumb 13.7157 27.663
rfemur 4.48069 5.6013 13.8774
rtibia 18.8485
rfoot -14.9853 -19.407
rtoes -9.64
lfemur 2.65564 -8.7537 -15.9213
ltibia 18.2199
lfoot -15.2779 13.6435
ltoes -8.66104
544
root -33.7226 17.6388 -1.17987 -239.998 88.6367 -233.625
lowerback 14.6291 -2.68611 0.00880024
upperback 3.57434 -2.64557 8.68801
thorax -3.96803 -1.1185 9.82724
lowerneck -4.41727 1.89506 -3.50917
upperneck -6.31373 2.60658 -15.7764
head -1.0787 1.77003 -4.61279
rclavicle -6.79844e-014 3.18055e-015
rhumerus -30.9039 41.2576 -64.4119
rradius 73.3158
rwrist 3.97517
rhand -22.2239 -4.65687
rfingers 7.12502
rthumb 4.19256 -34.5954
lclavicle -6.79844e-014 3.18055e-015
lhumerus 11.209 -0.43976 22.1837
lradius 95.5196
lwrist 9.55758
lhand -13.0635 -1.95891
lfingers 7.12502
lthumb 13.032 27.614
rfemur 3.92768 5.76124 13.2252
rtibia 19.4568
rfoot -15.1703 -19.094
rtoes -10.0214
lfemur 2.84636 -8.7266 -16.554
ltibia 17.7785
lfoot -14.8635 14.0171
ltoes -9.22941
545
root -33.7211 17.639 -1.20866 -262.344 88.3757 -256.126
lowerback 14.7398 -2.79545 -0.0584303
upperback 3.53447 -2.75492 9.02521
thorax -4.02939 -1.16196 10.2817
lowerneck -4.43308 2.1406 -3.41943
upperneck -6.43269 2.93646 -16.7404
head -1.07673 1.9679 -4.99119
rclavicle -8.50798e-014 -1.59028e-014
rhumerus -31.8575 41.0496 -64.2197
rradius 72.8407
rwrist 4.02191
rhand -22.133 -4.62526
rfingers 7.12502
rthumb 4.28033 -34.562
lclavicle -8.50798e-014 -1.59028e-014
lhumerus 12.5055 1.03929 19.7852
lradius 94.5659
lwrist 10.2324
lhand -13.7928 -2.00728
lfingers 7.12502
lthumb 12.3289 27.6092
rfemur 3.35834 5.91319 12.5608
rtibia 20.0596
rfoot -15.3574 -18.7872
rtoes -10.3761
lfemur 3.00521 -8.64365 -17.178
ltibia 17.3396
lfoot -14.4428 14.3164
ltoes -9.74274
546
root -33.7197 17.6393 -1.23772 -276.474 87.9346 -270.423
lowerback 14.8548 -2.89521 -0.158363
upperback 3.49428 -2.85603 9.35954
thorax -4.0915 -1.20082 10.7552
lowerneck -4.38055 2.38295 -3.15879
upperneck -6.73805 3.19439 -18.2157
head -0.974513 2.1616 -4.96126
rclavicle 0 -1.90833e-014
rhumerus -32.7137 40.8091 -63.9064
rradius 72.3941
rwrist 4.06666
rhand -22.0539 -4.60299
rfingers 7.12502
rthumb 4.35668 -34.5382
lclavicle 0 -1.90833e-014
lhumerus 13.7292 2.49429 17.428
lradius 93.4521
lwrist 10.9756
lhand -14.5058 -2.01124
lfingers 7.12502
lthumb 11.6414 27.6454
rfemur 2.77423 6.05484 11.8819
rtibia 20.6606
rfoot -15.5444 -18.4907
rtoes -10.7137
lfemur 3.13866 -8.51428 -17.7957
ltibia 16.8986
lfoot -14.0274 14.5374
ltoes -10.1899
547
root -33.7184 17.6396 -1.26668 -284.897 87.4094 -279.022
lowerback 14.972 -2.9824 -0.291406
upperback 3.45738 -2.94552 9.69037
thorax -4.14992 -1.23358 11.2466
lowerneck -4.45188 2.59805 -3.09678
upperneck -6.84759 3.48923 -19.101
head -0.946342 2.34055 -5.24325
rclavicle 5.00937e-014 9.54166e-015
rhumerus -33.4651 40.5257 -63.4799
rradius 71.9597
rwrist 4.11664
rhand -21.9856 -4.59432
rfingers 7.12502
rthumb 4.42263 -34.5281
lclavicle 5.00937e-014 9.54166e-015
lhumerus 14.8946 3.92384 15.1263
lradius 92.1773
lwrist 11.7716
lhand -15.1932 -1.98019
lfingers 7.12502
lthumb 10.9784 27.7128
rfemur 2.17733 6.19525 11.1982
rtibia 21.264
rfoot -15.733 -18.2149
rtoes -11.0328
lfemur 3.2543 -8.32892 -18.3996
ltibia 16.4478
lfoot -13.6105 14.6684
ltoes -10.6269
548
root -33.7171 17.64 -1.29532 -290.12 86.8493 -284.429
lowerback 15.0959 -3.05625 -0.454572
upperback 3.42065 -3.02185 10.0167
thorax -4.21121 -1.25919 11.7536
lowerneck -4.54735 2.79587 -3.0615
upperneck -6.94448 3.76699 -19.8975
head -0.911541 2.50744 -5.49372
rclavicle 7.95139e-015 -1.17681e-013
rhumerus -34.1298 40.2053 -62.9589
rradius 71.5399
rwrist 4.12606
rhand -21.9184 -4.60843
rfingers 7.12502
rthumb 4.4876 -34.5409
lclavicle 7.95139e-015 -1.17681e-013
lhumerus 16.0082 5.32346 12.8895
lradius 90.7452
lwrist 12.5957
lhand -15.83 -1.92503
lfingers 7.12502
lthumb 10.3641 27.7996
rfemur 1.56803 6.34383 10.5184
rtibia 21.8711
rfoot -15.9233 -17.9689
rtoes -11.321
lfemur 3.35476 -8.07871 -18.9831
ltibia 15.981
lfoot -13.1665 14.7086
ltoes -11.0773
549
root -33.7159 17.6407 -1.32346 -293.522 86.2777 -288.019
lowerback 15.2205 -3.11638 -0.644664
upperback 3.38795 -3.08488 10.3368
thorax -4.26849 -1.27793 12.272
lowerneck -4.6644 2.9729 -3.0547
upperneck -7.03542 4.02106 -20.595
head -0.874316 2.65912 -5.70906
rclavicle -9.54166e-015 1.08139e-013
rhumerus -34.6927 39.8384 -62.3533
rradius 71.1156
rwrist 4.11132
rhand -21.8534 -4.62212
rfingers 7.12502
rthumb 4.55032 -34.5533
lclavicle -9.54166e-015 1.08139e-013
lhumerus 17.0829 6.69873 10.7274
lradius 89.1607
lwrist 13.4155
lhand -16.4005 -1.87023
lfingers 7.12502
lthumb 9.81374 27.8811
rfemur 0.949129 6.50748 9.84832
rtibia 22.4818
rfoot -16.127 -17.7535
rtoes -11.5317
lfemur 3.44612 -7.77374 -19.5441
ltibia 15.4917
lfoot -12.6984 14.6588
ltoes -11.6154
550
root -33.7148 17.6415 -1.35117 -295.876 85.7043 -290.564
lowerback 15.3442 -3.16227 -0.856241
upperback 3.36059 -3.13385 10.6472
thorax -4.3205 -1.28967 12.7937
lowerneck -4.79436 3.12925 -3.0761
upperneck -7.12999 4.24832 -21.1846
head -0.840475 2.79481 -5.88655
rclavicle 3.02153e-014 6.67916e-014
rhumerus -35.1564 39.4213 -61.6782
rradius 70.683
rwrist 4.06676
rhand -21.8088 -4.62915
rfingers 7.12502
rthumb 4.59336 -34.5593
lclavicle 3.02153e-014 6.67916e-014
lhumerus 18.128 8.05791 8.64858
lradius 87.4343
lwrist 14.1795
lhand -16.8752 -1.83602
lfingers 7.12502
lthumb 9.35576 27.9364
rfemur 0.324187 6.68624 9.18934
rtibia 23.091
rfoot -16.3334 -17.5709
rtoes -11.7068
lfemur 3.53363 -7.43493 -20.0867
ltibia 14.9805
lfoot -12.2163 14.543
ltoes -12.2349
551
root -33.7137 17.6421 -1.37823 -297.488 85.1302 -292.372
lowerback 15.4612 -3.19496 -1.09216
upperback 3.33885 -3.17197 10.9421
thorax -4.36354 -1.29642 13.3139
lowerneck -4.93402 3.26415 -3.11741
upperneck -7.22934 4.44593 -21.6662
head -0.811802 2.91294 -6.02741
rclavicle 3.81667e-014 6.36111e-015
rhumerus -35.523 38.9476 -60.9529
rradius 70.2368
rwrist 4.00753
rhand -21.7354 -4.63765
rfingers 7.12502
rthumb 4.66423 -34.5663
lclavicle 3.81667e-014 6.36111e-015
lhumerus 19.1547 9.40727 6.65921
lradius 85.5746
lwrist 14.8251
lhand -17.2392 -1.83531
lfingers 7.12502
lthumb 9.00455 27.9525
rfemur -0.301495 6.87889 8.53747
rtibia 23.6927
rfoot -16.538 -17.4281
rtoes -11.8491
lfemur 3.61701 -7.08093 -20.6209
ltibia 14.45
lfoot -11.715 14.3784
ltoes -12.9536
552
root -33.7128 17.6425 -1.40476 -298.764 84.5669 -293.844
lowerback 15.5732 -3.21325 -1.33219
upperback 3.32395 -3.19418 11.2217
thorax -4.40012 -1.2957 13.8193
lowerneck -5.06888 3.37625 -3.1802
upperneck -7.34114 4.6085 -22.0375
head -0.794514 3.01228 -6.13102
rclavicle 3.18055e-014 -4.13472e-014
rhumerus -35.8123 38.416 -60.1966
rradius 69.7894
rwrist 3.9432
rhand -21.6602 -4.64687
rfingers 7.12502
rthumb 4.73691 -34.5739
lclavicle 3.18055e-014 -4.13472e-014
lhumerus 20.1717 10.7548 4.7717
lradius 83.5964
lwrist 15.2927
lhand -17.4762 -1.88935
lfingers 7.12502
lthumb 8.77584 27.9082
rfemur -0.921228 7.08521 7.90888
rtibia 24.2734
rfoot -16.7214 -17.3245
rtoes -12.0078
lfemur 3.6994 -6.72601 -21.1363
ltibia 13.9086
lfoot -11.2102 14.194
ltoes -13.7297
